<?xml version="1.0" encoding="utf-8"?>
<!-- Generator: Adobe Illustrator 16.0.0, SVG Export Plug-In . SVG Version: 6.00 Build 0)  -->
<!DOCTYPE svg PUBLIC "-//W3C//DTD SVG 1.1//EN" "http://www.w3.org/Graphics/SVG/1.1/DTD/svg11.dtd">
<svg version="1.1" id="Layer_1" xmlns="http://www.w3.org/2000/svg" xmlns:xlink="http://www.w3.org/1999/xlink" x="0px" y="0px"
	 width="612px" height="792px" viewBox="0 0 612 792" enable-background="new 0 0 612 792" xml:space="preserve">
<g>
	<path fill="#E0EAF3" d="M306,386.438c-57.997,0-105.188,47.191-105.188,105.188S248.003,596.812,306,596.812
		c57.996,0,105.188-47.191,105.188-105.188S363.996,386.438,306,386.438z M306,577.688c-47.449,0-86.062-38.604-86.062-86.062
		s38.613-86.062,86.062-86.062s86.062,38.604,86.062,86.062S353.449,577.688,306,577.688z"/>
	<path fill="#E0EAF3" d="M264.958,438.744l11.733,15.109c4.026-3.127,8.501-5.585,13.311-7.306l-6.436-18.007
		C276.834,430.941,270.571,434.374,264.958,438.744z"/>
	<path fill="#E0EAF3" d="M239.062,491.625h19.125c0-9.62,2.84-18.886,8.214-26.804l-15.826-10.738
		C243.05,465.175,239.062,478.161,239.062,491.625z"/>
	<path fill="#E0EAF3" d="M564.188,271.688H419.115c-7.66,0-14.87,2.993-20.292,8.405L382.5,296.416v-34.291
		c0-5.288-4.284-9.562-9.562-9.562h-38.25h-57.375h-38.25c-5.278,0-9.562,4.274-9.562,9.562v47.812h-19.125V281.25
		c0-5.288-4.284-9.562-9.562-9.562h-76.5c-5.278,0-9.562,4.274-9.562,9.562v28.688H95.625V281.25c0-5.288-4.284-9.562-9.562-9.562
		h-38.25c-5.278,0-9.562,4.274-9.562,9.562v30.447c-11.102,3.958-19.125,14.478-19.125,26.928v76.5v229.5
		c0,15.816,12.871,28.688,28.688,28.688h516.375c15.816,0,28.688-12.871,28.688-28.688v-229.5v-114.75
		C592.875,284.559,580.004,271.688,564.188,271.688z M363.375,309.938H344.25v-38.25h19.125V309.938z M325.125,271.688v38.25h-38.25
		v-38.25H325.125z M248.625,271.688h19.125v38.25h-19.125V271.688z M133.875,290.812h57.375v19.125h-57.375V290.812z
		 M57.375,290.812H76.5v19.125H57.375V290.812z M38.25,338.625c0-5.278,4.293-9.562,9.562-9.562h38.25h38.25h76.5h38.25h38.25
		h57.375h38.25c1.271,0,2.524-0.258,3.682-0.746c1.167-0.487,2.209-1.186,3.089-2.065l32.637-32.637
		c1.808-1.807,4.217-2.802,6.771-2.802h145.072c5.269,0,9.562,4.284,9.562,9.562v105.188H420.654
		c-0.479-0.631-1.042-1.176-1.53-1.808c-2.323-2.983-4.771-5.843-7.315-8.635c-0.994-1.09-1.96-2.218-2.983-3.28
		c-3.423-3.529-6.999-6.895-10.758-10.06c-0.162-0.134-0.306-0.287-0.468-0.431c-4.064-3.385-8.339-6.512-12.767-9.438
		c-0.745-0.488-1.521-0.909-2.266-1.377c-3.634-2.305-7.363-4.466-11.217-6.445c-1.167-0.603-2.353-1.138-3.538-1.702
		c-3.539-1.702-7.134-3.261-10.825-4.667c-1.329-0.507-2.668-1.004-4.007-1.473c-3.634-1.262-7.334-2.362-11.102-3.337
		c-1.406-0.363-2.793-0.765-4.218-1.09c-3.854-0.87-7.783-1.54-11.752-2.094c-1.329-0.191-2.64-0.459-3.969-0.612
		c-5.24-0.574-10.547-0.928-15.94-0.928c-5.393,0-10.7,0.354-15.931,0.937c-1.339,0.153-2.639,0.421-3.968,0.612
		c-3.969,0.554-7.899,1.214-11.752,2.094c-1.416,0.325-2.812,0.717-4.217,1.09c-3.758,0.976-7.468,2.065-11.102,3.337
		c-1.348,0.468-2.677,0.966-4.006,1.473c-3.691,1.406-7.287,2.974-10.825,4.667c-1.186,0.564-2.372,1.109-3.539,1.702
		c-3.844,1.979-7.573,4.141-11.217,6.445c-0.746,0.479-1.53,0.89-2.266,1.377c-4.427,2.926-8.702,6.053-12.766,9.438
		c-0.163,0.134-0.306,0.287-0.468,0.43c-3.768,3.165-7.344,6.531-10.758,10.06c-1.033,1.062-1.989,2.19-2.983,3.28
		c-2.544,2.792-4.992,5.651-7.315,8.635c-0.488,0.622-1.052,1.167-1.53,1.808H38.25V338.625z M312.416,615.612
		c-2.056,0.105-4.083,0.306-6.167,0.315c-1.368,0-2.707-0.144-4.064-0.182c-19.794-0.603-38.451-5.747-54.889-14.592
		c-0.201-0.115-0.411-0.201-0.622-0.316c-2.812-1.529-5.518-3.241-8.195-4.981c-0.889-0.584-1.797-1.129-2.677-1.731
		c-2.238-1.529-4.37-3.193-6.502-4.867c-1.234-0.975-2.467-1.94-3.672-2.964c-1.903-1.616-3.739-3.309-5.546-5.04
		c-1.224-1.176-2.419-2.361-3.596-3.576c-1.683-1.75-3.309-3.538-4.886-5.384c-1.176-1.377-2.305-2.792-3.414-4.207
		c-1.386-1.77-2.754-3.567-4.045-5.412c-1.205-1.731-2.333-3.51-3.442-5.298c-1.042-1.654-2.084-3.299-3.05-5.011
		c-1.243-2.219-2.372-4.504-3.471-6.799c-0.679-1.396-1.396-2.773-2.027-4.198c-1.224-2.792-2.276-5.651-3.29-8.529
		c-0.373-1.053-0.813-2.075-1.147-3.137c-1.062-3.29-1.922-6.646-2.706-10.012c-0.182-0.766-0.421-1.512-0.583-2.276
		c-0.765-3.586-1.3-7.229-1.75-10.892c-0.077-0.631-0.22-1.243-0.287-1.874c-0.459-4.313-0.698-8.654-0.698-13.024
		c0-3.854,0.229-7.641,0.574-11.408c0.105-1.147,0.258-2.285,0.392-3.423c0.325-2.707,0.736-5.384,1.233-8.033
		c0.22-1.166,0.421-2.333,0.669-3.48c0.679-3.127,1.473-6.216,2.381-9.257c0.153-0.516,0.268-1.042,0.42-1.549
		c1.071-3.414,2.324-6.731,3.672-10.012c0.526-1.271,1.119-2.515,1.683-3.768c0.928-2.047,1.894-4.064,2.917-6.054
		c0.727-1.396,1.472-2.792,2.256-4.169c1.033-1.826,2.142-3.604,3.271-5.374c0.832-1.31,1.635-2.64,2.524-3.921
		c0.469-0.669,0.985-1.3,1.463-1.96c2.285-3.175,4.705-6.226,7.248-9.142c0.851-0.976,1.741-1.932,2.62-2.888
		c2.381-2.563,4.868-5.021,7.44-7.363c0.879-0.804,1.75-1.636,2.648-2.41c3.423-2.936,6.952-5.728,10.653-8.271
		c0.038-0.028,0.077-0.057,0.115-0.086c3.968-2.716,8.1-5.183,12.345-7.42c0.497-0.268,1.033-0.488,1.54-0.746
		c3.605-1.836,7.296-3.49,11.073-4.972c1.033-0.402,2.075-0.765,3.118-1.148c3.337-1.205,6.741-2.266,10.184-3.184
		c1.224-0.325,2.448-0.66,3.681-0.947c3.433-0.803,6.923-1.415,10.433-1.922c1.205-0.172,2.391-0.411,3.605-0.555
		c4.686-0.526,9.4-0.851,14.152-0.851c4.753,0,9.467,0.325,14.143,0.861c1.215,0.134,2.4,0.382,3.605,0.554
		c3.51,0.507,7,1.119,10.433,1.922c1.243,0.287,2.458,0.622,3.682,0.947c3.442,0.918,6.837,1.97,10.184,3.184
		c1.043,0.373,2.095,0.746,3.118,1.147c3.768,1.482,7.468,3.137,11.073,4.973c0.507,0.258,1.032,0.478,1.539,0.746
		c4.246,2.238,8.377,4.705,12.346,7.421c0.038,0.028,0.076,0.057,0.114,0.086c3.701,2.543,7.229,5.336,10.652,8.271
		c0.909,0.774,1.77,1.606,2.649,2.41c2.572,2.343,5.059,4.79,7.439,7.362c0.88,0.957,1.77,1.903,2.62,2.889
		c2.544,2.916,4.963,5.967,7.248,9.142c0.459,0.641,0.966,1.243,1.406,1.884c1.683,2.438,3.213,4.963,4.704,7.497
		c0.546,0.918,1.139,1.798,1.654,2.725c1.464,2.62,2.745,5.317,4.007,8.023c0.431,0.928,0.918,1.816,1.329,2.754
		c1.187,2.726,2.2,5.508,3.185,8.3c0.354,0.995,0.756,1.951,1.081,2.955c0.879,2.716,1.587,5.479,2.275,8.253
		c0.287,1.156,0.631,2.285,0.89,3.452c0.563,2.591,0.966,5.211,1.367,7.841c0.22,1.425,0.487,2.84,0.66,4.284
		c0.277,2.371,0.401,4.771,0.545,7.172c0.105,1.778,0.239,3.548,0.268,5.346c0.038,2.151-0.058,4.303-0.134,6.464
		c-0.076,2.104-0.144,4.217-0.315,6.292c-0.144,1.74-0.393,3.49-0.612,5.23c-0.363,2.802-0.727,5.595-1.271,8.339
		c-0.086,0.449-0.191,0.898-0.277,1.339c-10.997,52.01-54.593,92.115-108.334,97.853
		C316.968,615.44,314.702,615.498,312.416,615.612z M105.188,472.5c0,5.278-4.293,9.562-9.562,9.562s-9.562-4.284-9.562-9.562
		s4.293-9.562,9.562-9.562S105.188,467.222,105.188,472.5z M573.75,644.625c0,5.278-4.294,9.562-9.562,9.562H47.812
		c-5.269,0-9.562-4.284-9.562-9.562V424.688h47.812v20.885C74.96,449.531,66.938,460.05,66.938,472.5
		c0,15.816,12.871,28.688,28.688,28.688s28.688-12.871,28.688-28.688c0-12.45-8.023-22.969-19.125-26.928v-20.885h73.995
		c-0.315,0.593-0.526,1.233-0.832,1.836c-2.037,3.979-3.892,8.042-5.556,12.221c-0.631,1.588-1.186,3.194-1.76,4.811
		c-1.224,3.433-2.324,6.923-3.299,10.471c-0.488,1.798-0.976,3.586-1.387,5.394c-0.841,3.634-1.492,7.334-2.046,11.063
		c-0.249,1.635-0.564,3.251-0.746,4.905c-0.612,5.336-0.995,10.739-0.995,16.237c0,5.078,0.287,10.079,0.803,15.022
		c0.077,0.727,0.239,1.444,0.334,2.171c0.507,4.236,1.138,8.443,2.018,12.556c0.191,0.918,0.488,1.798,0.698,2.706
		c0.899,3.873,1.884,7.717,3.099,11.466c0.411,1.271,0.937,2.495,1.377,3.758c1.157,3.28,2.352,6.541,3.749,9.706
		c0.727,1.673,1.587,3.289,2.381,4.934c1.272,2.62,2.543,5.231,3.959,7.756c1.119,1.989,2.343,3.901,3.557,5.843
		c1.281,2.036,2.553,4.083,3.93,6.053c1.501,2.151,3.098,4.227,4.714,6.302c1.272,1.626,2.553,3.232,3.892,4.801
		c1.826,2.142,3.739,4.227,5.699,6.272c1.329,1.387,2.687,2.726,4.073,4.055c1.186,1.138,2.267,2.381,3.491,3.48
		c0.956,0.86,1.999,1.568,2.974,2.4c1.368,1.167,2.783,2.267,4.198,3.385c2.467,1.941,4.944,3.845,7.497,5.613
		c1.042,0.718,2.123,1.368,3.184,2.056c3.06,1.989,6.139,3.931,9.314,5.671c0.344,0.191,0.698,0.345,1.042,0.526
		c19.25,10.337,40.526,15.998,62.702,16.687c1.587,0.028,3.146,0.22,4.752,0.22c0.096,0,0.191-0.02,0.287-0.02
		c2.285-0.009,4.6-0.238,6.904-0.354c2.706-0.134,5.422-0.191,8.09-0.478c0.334-0.039,0.649-0.02,0.984-0.058
		c9.018-0.995,17.768-2.927,26.221-5.527c0.114-0.038,0.229-0.076,0.344-0.115c48.922-15.214,86.809-55.997,97.413-106.956
		c0.144-0.669,0.287-1.339,0.421-2.008c0.239-1.253,0.574-2.477,0.784-3.749c0.393-2.371,0.603-4.733,0.88-7.104
		c0.134-1.138,0.315-2.257,0.421-3.395c0.411-4.447,0.669-8.874,0.669-13.292c0-0.125,0.02-0.249,0.02-0.383
		c0-0.928-0.124-1.816-0.144-2.734c-0.066-3.376-0.21-6.732-0.507-10.079c-0.172-1.903-0.43-3.777-0.679-5.651
		c-0.315-2.448-0.679-4.877-1.119-7.306c-0.363-2.009-0.765-4.007-1.214-5.986c-0.517-2.276-1.119-4.533-1.75-6.78
		c-0.545-1.941-1.062-3.892-1.684-5.795c-0.784-2.409-1.711-4.781-2.62-7.152c-0.707-1.836-1.367-3.691-2.151-5.499
		c-1.463-3.365-3.031-6.693-4.762-9.954H573.75V644.625z"/>
	<path fill="#E0EAF3" d="M430.312,367.312h38.25c5.278,0,9.562-4.274,9.562-9.562V319.5c0-5.288-4.284-9.562-9.562-9.562h-38.25
		c-5.278,0-9.562,4.274-9.562,9.562v38.25C420.75,363.038,425.034,367.312,430.312,367.312z M439.875,329.062H459v19.125h-19.125
		V329.062z"/>
	<path fill="#E0EAF3" d="M506.812,367.312h38.25c5.278,0,9.562-4.274,9.562-9.562V319.5c0-5.288-4.284-9.562-9.562-9.562h-38.25
		c-5.278,0-9.562,4.274-9.562,9.562v38.25C497.25,363.038,501.534,367.312,506.812,367.312z M516.375,329.062H535.5v19.125h-19.125
		V329.062z"/>
	<path fill="#E0EAF3" d="M525.938,635.062c15.816,0,28.688-12.871,28.688-28.688s-12.871-28.688-28.688-28.688
		s-28.688,12.871-28.688,28.688S510.121,635.062,525.938,635.062z M525.938,596.812c5.269,0,9.562,4.284,9.562,9.562
		s-4.294,9.562-9.562,9.562s-9.562-4.284-9.562-9.562S520.669,596.812,525.938,596.812z"/>
	<path fill="#E0EAF3" d="M420.75,606.375c0,15.816,12.871,28.688,28.688,28.688s28.688-12.871,28.688-28.688
		s-12.871-28.688-28.688-28.688S420.75,590.559,420.75,606.375z M459,606.375c0,5.278-4.294,9.562-9.562,9.562
		s-9.562-4.284-9.562-9.562s4.294-9.562,9.562-9.562S459,601.097,459,606.375z"/>
	<path fill="#E0EAF3" d="M525.938,223.875c15.816,0,28.688-12.871,28.688-28.688S541.754,166.5,525.938,166.5
		s-28.688,12.871-28.688,28.688S510.121,223.875,525.938,223.875z M525.938,185.625c5.269,0,9.562,4.284,9.562,9.562
		s-4.294,9.562-9.562,9.562s-9.562-4.284-9.562-9.562S520.669,185.625,525.938,185.625z"/>
	<path fill="#E0EAF3" d="M325.125,214.312c15.816,0,28.688-12.871,28.688-28.688s-12.871-28.688-28.688-28.688
		s-28.688,12.871-28.688,28.688S309.309,214.312,325.125,214.312z M325.125,176.062c5.269,0,9.562,4.284,9.562,9.562
		s-4.294,9.562-9.562,9.562s-9.562-4.284-9.562-9.562S319.856,176.062,325.125,176.062z"/>
	<rect x="57.375" y="348.188" fill="#E0EAF3" width="19.125" height="19.125"/>
	<rect x="57.375" y="615.938" fill="#E0EAF3" width="19.125" height="19.125"/>
	<rect x="57.375" y="577.688" fill="#E0EAF3" width="19.125" height="19.125"/>
	<rect x="57.375" y="539.438" fill="#E0EAF3" width="19.125" height="19.125"/>
	<rect x="535.5" y="443.812" fill="#E0EAF3" width="19.125" height="19.125"/>
	<rect x="497.25" y="443.812" fill="#E0EAF3" width="19.125" height="19.125"/>
	<rect x="153" y="214.312" fill="#E0EAF3" width="19.125" height="19.125"/>
	<rect x="86.062" y="176.062" fill="#E0EAF3" width="19.125" height="19.125"/>
	<rect x="382.5" y="118.688" fill="#E0EAF3" width="19.125" height="19.125"/>
	<rect x="95.625" y="348.188" fill="#E0EAF3" width="19.125" height="19.125"/>
	<rect x="133.875" y="348.188" fill="#E0EAF3" width="19.125" height="19.125"/>
	<polygon fill="#E0EAF3" points="401.625,204.75 401.625,223.875 420.75,223.875 420.75,243 439.875,243 439.875,223.875 
		459,223.875 459,204.75 439.875,204.75 439.875,185.625 420.75,185.625 420.75,204.75 	"/>
	<polygon fill="#E0EAF3" points="219.938,204.75 239.062,204.75 239.062,185.625 258.188,185.625 258.188,166.5 239.062,166.5 
		239.062,147.375 219.938,147.375 219.938,166.5 200.812,166.5 200.812,185.625 219.938,185.625 	"/>
</g>
</svg>
