<svg xmlns="http://www.w3.org/2000/svg" xmlns:xlink="http://www.w3.org/1999/xlink" version="1.1" x="0px" y="0px" viewBox="0 0 64 64" enable-background="new 0 0 64 64" xml:space="preserve"><g><path d="M32,31c-6.065,0-11,4.935-11,11s4.935,11,11,11s11-4.935,11-11S38.065,31,32,31z M32,51c-4.962,0-9-4.037-9-9s4.038-9,9-9   s9,4.037,9,9S36.962,51,32,51z"></path><path d="M27.708,36.47l1.227,1.58c0.421-0.327,0.889-0.584,1.392-0.764l-0.673-1.883C28.95,35.654,28.295,36.013,27.708,36.47z"></path><path d="M25,42h2c0-1.006,0.297-1.975,0.859-2.803l-1.655-1.123C25.417,39.234,25,40.592,25,42z"></path><path d="M59,19H43.829c-0.801,0-1.555,0.313-2.122,0.879L40,21.586V18c0-0.553-0.448-1-1-1h-4h-6h-4c-0.552,0-1,0.447-1,1v5h-2v-3   c0-0.553-0.448-1-1-1h-8c-0.552,0-1,0.447-1,1v3h-2v-3c0-0.553-0.448-1-1-1H5c-0.552,0-1,0.447-1,1v3.184   C2.839,23.598,2,24.698,2,26v8v24c0,1.654,1.346,3,3,3h54c1.654,0,3-1.346,3-3V34V22C62,20.346,60.654,19,59,19z M38,23h-2v-4h2V23   z M34,19v4h-4v-4H34z M26,19h2v4h-2V19z M14,21h6v2h-6V21z M6,21h2v2H6V21z M4,26c0-0.552,0.449-1,1-1h4h4h8h4h4h6h4   c0.133,0,0.264-0.027,0.385-0.078c0.122-0.051,0.231-0.124,0.323-0.216l3.413-3.413C43.31,21.104,43.562,21,43.829,21H59   c0.551,0,1,0.448,1,1v11H43.99c-0.05-0.066-0.109-0.123-0.16-0.189c-0.243-0.312-0.499-0.611-0.765-0.903   c-0.104-0.114-0.205-0.232-0.312-0.343c-0.358-0.369-0.732-0.721-1.125-1.052c-0.017-0.014-0.032-0.03-0.049-0.045   c-0.425-0.354-0.872-0.681-1.335-0.987c-0.078-0.051-0.159-0.095-0.237-0.144c-0.38-0.241-0.77-0.467-1.173-0.674   c-0.122-0.063-0.246-0.119-0.37-0.178c-0.37-0.178-0.746-0.341-1.132-0.488c-0.139-0.053-0.279-0.105-0.419-0.154   c-0.38-0.132-0.767-0.247-1.161-0.349c-0.147-0.038-0.292-0.08-0.441-0.114c-0.403-0.091-0.814-0.161-1.229-0.219   c-0.139-0.02-0.276-0.048-0.415-0.064C33.119,27.037,32.564,27,32,27s-1.119,0.037-1.666,0.098   c-0.14,0.016-0.276,0.044-0.415,0.064c-0.415,0.058-0.826,0.127-1.229,0.219c-0.148,0.034-0.294,0.075-0.441,0.114   c-0.393,0.102-0.781,0.216-1.161,0.349c-0.141,0.049-0.28,0.101-0.419,0.154c-0.386,0.147-0.762,0.311-1.132,0.488   c-0.124,0.059-0.248,0.116-0.37,0.178c-0.402,0.207-0.792,0.433-1.173,0.674c-0.078,0.05-0.16,0.093-0.237,0.144   c-0.463,0.306-0.91,0.633-1.335,0.987c-0.017,0.014-0.032,0.03-0.049,0.045c-0.394,0.331-0.768,0.683-1.125,1.052   c-0.108,0.111-0.208,0.229-0.312,0.343c-0.266,0.292-0.522,0.591-0.765,0.903c-0.051,0.065-0.11,0.122-0.16,0.189H4V26z    M32.671,54.966c-0.215,0.011-0.427,0.032-0.645,0.033c-0.143,0-0.283-0.015-0.425-0.019c-2.07-0.063-4.021-0.601-5.74-1.526   c-0.021-0.012-0.043-0.021-0.065-0.033c-0.294-0.16-0.577-0.339-0.857-0.521c-0.093-0.061-0.188-0.118-0.28-0.181   c-0.234-0.16-0.457-0.334-0.68-0.509c-0.129-0.102-0.258-0.203-0.384-0.31c-0.199-0.169-0.391-0.346-0.58-0.527   c-0.128-0.123-0.253-0.247-0.376-0.374c-0.176-0.183-0.346-0.37-0.511-0.563c-0.123-0.144-0.241-0.292-0.357-0.44   c-0.145-0.185-0.288-0.373-0.423-0.566c-0.126-0.181-0.244-0.367-0.36-0.554c-0.109-0.173-0.218-0.345-0.319-0.524   c-0.13-0.232-0.248-0.471-0.363-0.711c-0.071-0.146-0.146-0.29-0.212-0.439c-0.128-0.292-0.238-0.591-0.344-0.892   c-0.039-0.11-0.085-0.217-0.12-0.328c-0.111-0.344-0.201-0.695-0.283-1.047c-0.019-0.08-0.044-0.158-0.061-0.238   c-0.08-0.375-0.136-0.756-0.183-1.139c-0.008-0.066-0.023-0.13-0.03-0.196C19.025,42.911,19,42.457,19,42   c0-0.403,0.024-0.799,0.06-1.193c0.011-0.12,0.027-0.239,0.041-0.358c0.034-0.283,0.077-0.563,0.129-0.84   c0.023-0.122,0.044-0.244,0.07-0.364c0.071-0.327,0.154-0.65,0.249-0.968c0.016-0.054,0.028-0.109,0.044-0.162   c0.112-0.357,0.243-0.704,0.384-1.047c0.055-0.133,0.117-0.263,0.176-0.394c0.097-0.214,0.198-0.425,0.305-0.633   c0.076-0.146,0.154-0.292,0.236-0.436c0.108-0.191,0.224-0.377,0.342-0.562c0.087-0.137,0.171-0.276,0.264-0.41   c0.049-0.07,0.103-0.136,0.153-0.205c0.239-0.332,0.492-0.651,0.758-0.956c0.089-0.102,0.182-0.202,0.274-0.302   c0.249-0.268,0.509-0.525,0.778-0.77c0.092-0.084,0.183-0.171,0.277-0.252c0.358-0.307,0.727-0.599,1.114-0.865   c0.004-0.003,0.008-0.006,0.012-0.009c0.415-0.284,0.847-0.542,1.291-0.776c0.052-0.028,0.108-0.051,0.161-0.078   c0.377-0.192,0.763-0.365,1.158-0.52c0.108-0.042,0.217-0.08,0.326-0.12c0.349-0.126,0.705-0.237,1.065-0.333   c0.128-0.034,0.256-0.069,0.385-0.099c0.359-0.084,0.724-0.148,1.091-0.201c0.126-0.018,0.25-0.043,0.377-0.058   C31.01,29.034,31.503,29,32,29s0.99,0.034,1.479,0.09c0.127,0.014,0.251,0.04,0.377,0.058c0.367,0.053,0.732,0.117,1.091,0.201   c0.13,0.03,0.257,0.065,0.385,0.099c0.36,0.096,0.715,0.206,1.065,0.333c0.109,0.039,0.219,0.078,0.326,0.12   c0.394,0.155,0.781,0.328,1.158,0.52c0.053,0.027,0.108,0.05,0.161,0.078c0.444,0.234,0.876,0.492,1.291,0.776   c0.004,0.003,0.008,0.006,0.012,0.009c0.387,0.266,0.756,0.558,1.114,0.865c0.095,0.081,0.185,0.168,0.277,0.252   c0.269,0.245,0.529,0.501,0.778,0.77c0.092,0.1,0.185,0.199,0.274,0.302c0.266,0.305,0.519,0.624,0.758,0.956   c0.048,0.067,0.101,0.13,0.147,0.197c0.176,0.255,0.336,0.519,0.492,0.784c0.057,0.096,0.119,0.188,0.173,0.285   c0.153,0.274,0.287,0.556,0.419,0.839c0.045,0.097,0.096,0.19,0.139,0.288c0.124,0.285,0.23,0.576,0.333,0.868   c0.037,0.104,0.079,0.204,0.113,0.309c0.092,0.284,0.166,0.573,0.238,0.863c0.03,0.121,0.066,0.239,0.093,0.361   c0.059,0.271,0.101,0.545,0.143,0.82c0.023,0.149,0.051,0.297,0.069,0.448c0.029,0.248,0.042,0.499,0.057,0.75   c0.011,0.186,0.025,0.371,0.028,0.559c0.004,0.225-0.006,0.45-0.014,0.676c-0.008,0.22-0.015,0.441-0.033,0.658   c-0.015,0.182-0.041,0.365-0.064,0.547c-0.038,0.293-0.076,0.585-0.133,0.872c-0.009,0.047-0.02,0.094-0.029,0.14   c-1.15,5.439-5.709,9.633-11.329,10.233C33.147,54.948,32.91,54.954,32.671,54.966z M11,40c0,0.552-0.449,1-1,1s-1-0.448-1-1   s0.449-1,1-1S11,39.448,11,40z M60,58c0,0.552-0.449,1-1,1H5c-0.551,0-1-0.448-1-1V35h5v2.184C7.839,37.598,7,38.698,7,40   c0,1.654,1.346,3,3,3s3-1.346,3-3c0-1.302-0.839-2.402-2-2.816V35h7.738c-0.033,0.062-0.055,0.129-0.087,0.192   c-0.213,0.416-0.407,0.841-0.581,1.278c-0.066,0.166-0.124,0.334-0.184,0.503c-0.128,0.359-0.243,0.724-0.345,1.095   c-0.051,0.188-0.102,0.375-0.145,0.564c-0.088,0.38-0.156,0.767-0.214,1.157c-0.026,0.171-0.059,0.34-0.078,0.513   C17.04,40.86,17,41.425,17,42c0,0.531,0.03,1.054,0.084,1.571c0.008,0.076,0.025,0.151,0.035,0.227   c0.053,0.443,0.119,0.883,0.211,1.313c0.02,0.096,0.051,0.188,0.073,0.283c0.094,0.405,0.197,0.807,0.324,1.199   c0.043,0.133,0.098,0.261,0.144,0.393c0.121,0.343,0.246,0.684,0.392,1.015c0.076,0.175,0.166,0.344,0.249,0.516   c0.133,0.274,0.266,0.547,0.414,0.811c0.117,0.208,0.245,0.408,0.372,0.611c0.134,0.213,0.267,0.427,0.411,0.633   c0.157,0.225,0.324,0.442,0.493,0.659c0.133,0.17,0.267,0.338,0.407,0.502c0.191,0.224,0.391,0.442,0.596,0.656   c0.139,0.145,0.281,0.285,0.426,0.424c0.124,0.119,0.237,0.249,0.365,0.364c0.1,0.09,0.209,0.164,0.311,0.251   c0.143,0.122,0.291,0.237,0.439,0.354c0.258,0.203,0.517,0.402,0.784,0.587c0.109,0.075,0.222,0.143,0.333,0.215   c0.32,0.208,0.642,0.411,0.974,0.593c0.036,0.02,0.073,0.036,0.109,0.055c2.013,1.081,4.238,1.673,6.557,1.745   C31.669,56.98,31.832,57,32,57c0.01,0,0.02-0.002,0.03-0.002c0.239-0.001,0.481-0.025,0.722-0.037   c0.283-0.014,0.567-0.02,0.846-0.05c0.035-0.004,0.068-0.002,0.103-0.006c0.943-0.104,1.858-0.306,2.742-0.578   c0.012-0.004,0.024-0.008,0.036-0.012c5.116-1.591,9.078-5.856,10.187-11.185c0.015-0.07,0.03-0.14,0.044-0.21   c0.025-0.131,0.06-0.259,0.082-0.392c0.041-0.248,0.063-0.495,0.092-0.743c0.014-0.119,0.033-0.236,0.044-0.355   c0.043-0.465,0.07-0.928,0.07-1.39C46.998,42.027,47,42.014,47,42c0-0.097-0.013-0.19-0.015-0.286   c-0.007-0.353-0.022-0.704-0.053-1.054c-0.018-0.199-0.045-0.395-0.071-0.591c-0.033-0.256-0.071-0.51-0.117-0.764   c-0.038-0.21-0.08-0.419-0.127-0.626c-0.054-0.238-0.117-0.474-0.183-0.709c-0.057-0.203-0.111-0.407-0.176-0.606   c-0.082-0.252-0.179-0.5-0.274-0.748c-0.074-0.192-0.143-0.386-0.225-0.575c-0.153-0.352-0.317-0.7-0.498-1.041H60V58z"></path><path d="M45,29h4c0.552,0,1-0.447,1-1v-4c0-0.553-0.448-1-1-1h-4c-0.552,0-1,0.447-1,1v4C44,28.553,44.448,29,45,29z M46,25h2v2h-2   V25z"></path><path d="M53,29h4c0.552,0,1-0.447,1-1v-4c0-0.553-0.448-1-1-1h-4c-0.552,0-1,0.447-1,1v4C52,28.553,52.448,29,53,29z M54,25h2v2h-2   V25z"></path><path d="M55,57c1.654,0,3-1.346,3-3s-1.346-3-3-3s-3,1.346-3,3S53.346,57,55,57z M55,53c0.551,0,1,0.448,1,1s-0.449,1-1,1   s-1-0.448-1-1S54.449,53,55,53z"></path><path d="M44,54c0,1.654,1.346,3,3,3s3-1.346,3-3s-1.346-3-3-3S44,52.346,44,54z M48,54c0,0.552-0.449,1-1,1s-1-0.448-1-1   s0.449-1,1-1S48,53.448,48,54z"></path><path d="M55,14c1.654,0,3-1.346,3-3s-1.346-3-3-3s-3,1.346-3,3S53.346,14,55,14z M55,10c0.551,0,1,0.448,1,1s-0.449,1-1,1   s-1-0.448-1-1S54.449,10,55,10z"></path><path d="M34,13c1.654,0,3-1.346,3-3s-1.346-3-3-3s-3,1.346-3,3S32.346,13,34,13z M34,9c0.551,0,1,0.448,1,1s-0.449,1-1,1   s-1-0.448-1-1S33.449,9,34,9z"></path><rect x="6" y="27" width="2" height="2"></rect><rect x="6" y="55" width="2" height="2"></rect><rect x="6" y="51" width="2" height="2"></rect><rect x="6" y="47" width="2" height="2"></rect><rect x="56" y="37" width="2" height="2"></rect><rect x="52" y="37" width="2" height="2"></rect><rect x="16" y="13" width="2" height="2"></rect><rect x="9" y="9" width="2" height="2"></rect><rect x="40" y="3" width="2" height="2"></rect><rect x="10" y="27" width="2" height="2"></rect><rect x="14" y="27" width="2" height="2"></rect><polygon points="42,12 42,14 44,14 44,16 46,16 46,14 48,14 48,12 46,12 46,10 44,10 44,12  "></polygon><polygon points="23,12 25,12 25,10 27,10 27,8 25,8 25,6 23,6 23,8 21,8 21,10 23,10  "></polygon></g></svg>